<svg width="448" height="512" viewBox="0 0 448 512" fill="none" xmlns="http://www.w3.org/2000/svg">
<path d="M438.6 150.6C451.1 138.1 451.1 117.8 438.6 105.3L342.6 9.3C330.1 -3.2 309.8 -3.2 297.3 9.3C284.8 21.8 284.8 42.1 297.3 54.6L338.7 96H32C14.3 96 0 110.3 0 128C0 145.7 14.3 160 32 160H338.7L297.3 201.4C284.8 213.9 284.8 234.2 297.3 246.7C309.8 259.2 330.1 259.2 342.6 246.7L438.6 150.7V150.6ZM105.3 502.6C117.8 515.1 138.1 515.1 150.6 502.6C163.1 490.1 163.1 469.8 150.6 457.3L109.3 416H416C433.7 416 448 401.7 448 384C448 366.3 433.7 352 416 352H109.3L150.7 310.6C163.2 298.1 163.2 277.8 150.7 265.3C138.2 252.8 117.9 252.8 105.4 265.3L9.4 361.3C-3.1 373.8 -3.1 394.1 9.4 406.6L105.4 502.6H105.3Z" fill="#2753A8"/>
</svg>
